<?xml version="1.0" encoding="utf-8"?>
<!-- Svg Vector Icons : http://www.onlinewebfonts.com/icon -->
<!DOCTYPE svg PUBLIC "-//W3C//DTD SVG 1.1//EN" "http://www.w3.org/Graphics/SVG/1.1/DTD/svg11.dtd">
<svg version="1.1" xmlns="http://www.w3.org/2000/svg" xmlns:xlink="http://www.w3.org/1999/xlink" x="0px" y="0px" viewBox="0 0 1000 1000" enable-background="new 0 0 1000 1000" xml:space="preserve">
<metadata> Svg Vector Icons : http://www.onlinewebfonts.com/icon </metadata>
<g><path fill="#212529" d="M785.1,251.3l-299.6-173c-39.8-22.9-95.1-8.1-118.1,31.7L21.6,709.2c-23.9,41.3-9.6,94.3,31.7,118.2l183.3,105.2l251.2-1l329.1-562C840.6,328.2,826.4,275.2,785.1,251.3L785.1,251.3z M454.6,873.9l-202.8,0.8L82,777.4c-13.8-8-18.5-25.6-10.5-39.4L230,463.3l347.5,200.6L454.6,873.9L454.6,873.9z M766.9,340.4L606.6,614.3L258.8,413.5l158.5-274.7c5.1-8.9,14.8-14.4,25-14.4c5.1,0,9.9,1.3,14.4,3.8l299.6,173C770.1,309.2,774.8,326.8,766.9,340.4L766.9,340.4z M990,873.9v57.7H586.4v-57.7H990z"/></g>
</svg>