<svg xmlns="http://www.w3.org/2000/svg" xmlns:xlink="http://www.w3.org/1999/xlink" width="20" height="20" viewBox="0 0 20 20">
    <defs>
        <path id="a" d="M0 0h19.814v19.814H0z"/>
    </defs>
    <g fill="none" fill-rule="evenodd">
        <mask id="b" fill="#fff">
            <use xlink:href="#a"/>
        </mask>
        <path fill="#393939" d="M16.176 10.605a6.32 6.32 0 0 1-5.571 5.572v-2.828a.698.698 0 0 0-1.396 0v2.828a6.32 6.32 0 0 1-5.571-5.572h2.827a.698.698 0 0 0 0-1.395H3.638a6.318 6.318 0 0 1 5.571-5.572v2.827a.698.698 0 1 0 1.396 0V3.638a6.318 6.318 0 0 1 5.57 5.572H13.35a.698.698 0 0 0 0 1.395h2.827zm1.4-1.395a7.713 7.713 0 0 0-6.971-6.973V.697a.698.698 0 0 0-1.396 0v1.54A7.713 7.713 0 0 0 2.237 9.21H.697a.698.698 0 1 0 0 1.395h1.54a7.713 7.713 0 0 0 6.972 6.972v1.54a.698.698 0 1 0 1.396 0v-1.54a7.713 7.713 0 0 0 6.972-6.972h1.539a.698.698 0 1 0 0-1.395h-1.54z" mask="url(#b)"/>
    </g>
</svg>
