<svg xmlns="http://www.w3.org/2000/svg" xmlns:xlink="http://www.w3.org/1999/xlink" width="20" height="20" viewBox="0 0 20 20">
    <defs>
        <path id="a" d="M0 0h19.814v19.814H0z"/>
    </defs>
    <g fill="none" fill-rule="evenodd">
        <mask id="b" fill="#fff">
            <use xlink:href="#a"/>
        </mask>
        <path fill="#000" d="M7.706 14.015c-3.48 0-6.31-2.83-6.31-6.31 0-3.479 2.83-6.31 6.31-6.31 3.479 0 6.31 2.831 6.31 6.31 0 3.48-2.831 6.31-6.31 6.31zm5.915-1.38a7.668 7.668 0 0 0 1.79-4.93C15.41 3.457 11.954 0 7.706 0 3.456 0 0 3.456 0 7.706c0 4.248 3.457 7.705 7.706 7.705a7.668 7.668 0 0 0 4.929-1.79l5.988 5.988a.695.695 0 0 0 .987 0 .697.697 0 0 0 0-.986l-5.989-5.988z" mask="url(#b)"/>
    </g>
</svg>
