<svg xmlns="http://www.w3.org/2000/svg" xmlns:xlink="http://www.w3.org/1999/xlink" width="15" height="16" viewBox="0 0 15 16">
    <defs>
        <path id="a" d="M0 .155h14.845V15H0z"/>
    </defs>
    <g fill="none" fill-rule="evenodd">
        <g transform="translate(0 .194)">
            <mask id="b" fill="#fff">
                <use xlink:href="#a"/>
            </mask>
            <path fill="#5F5F5F" d="M12.413 8.507c-.13.705-.4 1.36-.803 1.945a.523.523 0 0 0 .062.666l.613.613-.709.71-.612-.612a.524.524 0 0 0-.667-.06 5.038 5.038 0 0 1-1.947.809.523.523 0 0 0-.426.514v.861H6.92v-.857c0-.253-.18-.47-.43-.515-.71-.13-1.368-.4-1.956-.803a.523.523 0 0 0-.666.062l-.6.6-.71-.709.599-.598a.524.524 0 0 0 .06-.668 5.025 5.025 0 0 1-.812-1.958.523.523 0 0 0-.515-.428h-.844V7.076h.844c.252 0 .469-.18.515-.428.13-.71.403-1.37.81-1.96a.523.523 0 0 0-.06-.667l-.597-.597.71-.71.598.599a.523.523 0 0 0 .666.062 5.042 5.042 0 0 1 1.959-.805.523.523 0 0 0 .429-.515v-.853h1.003v.857c0 .252.18.468.427.515a5.03 5.03 0 0 1 1.948.81.524.524 0 0 0 .667-.06l.61-.61.71.71-.612.612a.523.523 0 0 0-.062.665c.402.587.671 1.241.801 1.947a.524.524 0 0 0 .515.428h.87V8.08h-.87a.523.523 0 0 0-.515.428zm1.909.618a.523.523 0 0 0 .523-.523v-2.05a.523.523 0 0 0-.523-.522h-.974a6.056 6.056 0 0 0-.638-1.55l.685-.686a.523.523 0 0 0 0-.74l-1.45-1.45a.523.523 0 0 0-.739 0l-.682.683A6.076 6.076 0 0 0 8.97 1.64V.68a.523.523 0 0 0-.523-.524h-2.05a.523.523 0 0 0-.523.524v.956a6.039 6.039 0 0 0-1.563.642l-.672-.672a.523.523 0 0 0-.74 0l-1.45 1.449a.523.523 0 0 0 0 .74l.67.67A6.039 6.039 0 0 0 1.47 6.03H.523A.523.523 0 0 0 0 6.553v2.05c0 .288.234.522.523.522h.949c.142.552.36 1.076.649 1.565l-.672.672a.523.523 0 0 0 0 .74L2.9 13.55a.523.523 0 0 0 .74 0l.674-.674c.488.286 1.01.5 1.561.64v.96c0 .29.235.524.524.524h2.05a.523.523 0 0 0 .522-.523v-.966a6.042 6.042 0 0 0 1.551-.645l.685.684a.523.523 0 0 0 .74 0l1.449-1.449a.523.523 0 0 0 0-.74l-.687-.686a6.075 6.075 0 0 0 .639-1.55h.975z" mask="url(#b)"/>
        </g>
        <path fill="#5F5F5F" d="M7.41 10.398A2.55 2.55 0 0 1 4.862 7.85a2.55 2.55 0 0 1 2.546-2.547 2.55 2.55 0 0 1 2.547 2.547 2.55 2.55 0 0 1-2.547 2.547m0-6.14A3.597 3.597 0 0 0 3.816 7.85a3.597 3.597 0 0 0 3.593 3.593 3.597 3.597 0 0 0 3.593-3.593A3.597 3.597 0 0 0 7.41 4.258"/>
    </g>
</svg>
