<svg xmlns="http://www.w3.org/2000/svg" xmlns:xlink="http://www.w3.org/1999/xlink" width="20" height="20" viewBox="0 0 20 20">
    <defs>
        <path id="a" d="M0 0h19.814v19.845H0z"/>
    </defs>
    <g fill="none" fill-rule="evenodd">
        <mask id="b" fill="#fff">
            <use xlink:href="#a"/>
        </mask>
        <path fill="#FFF" d="M16.258 11.753H1.395V4.637h16.807l-1.944 7.116zm-3.634 6.33c-.474.473-1.301.474-1.776 0a1.258 1.258 0 0 1 .888-2.145c.336 0 .651.13.888.368.237.237.368.553.368.888 0 .336-.131.65-.368.888zm-7.907 0c-.474.473-1.301.473-1.776 0a1.256 1.256 0 1 1 1.776 0zM19.671 3.515a.698.698 0 0 0-.555-.274H1.396V.697A.698.698 0 1 0 0 .697V15.21c0 .385.312.697.698.697h.827a2.646 2.646 0 0 0 .43 3.162c.5.5 1.166.776 1.874.776.708 0 1.374-.275 1.875-.776.5-.5.777-1.167.777-1.875 0-.46-.128-.896-.347-1.287h3.298a2.647 2.647 0 0 0 .43 3.162c.5.5 1.166.776 1.874.776.708 0 1.374-.275 1.875-.776.5-.5.776-1.167.776-1.875 0-.46-.127-.896-.346-1.287h.905a.698.698 0 0 0 0-1.395H1.396v-1.363H16.79c.314 0 .59-.21.673-.514l2.325-8.512a.7.7 0 0 0-.118-.607z" mask="url(#b)"/>
    </g>
</svg>
