<svg xmlns="http://www.w3.org/2000/svg" xmlns:xlink="http://www.w3.org/1999/xlink" width="22" height="19" viewBox="0 0 22 19">
    <defs>
        <path id="a" d="M0 .435h21.795V18.93H0z"/>
    </defs>
    <g fill="none" fill-rule="evenodd">
        <path fill="#FFF" d="M5.355 7.016h11.086a.767.767 0 1 0 0-1.535H5.355a.767.767 0 1 0 0 1.535M5.355 10.738h11.086a.767.767 0 1 0 0-1.535H5.355a.767.767 0 1 0 0 1.535"/>
        <g transform="translate(0 .077)">
            <mask id="b" fill="#fff">
                <use xlink:href="#a"/>
            </mask>
            <path fill="#FFF" d="M20.26 14.096H8.34a.769.769 0 0 0-.466.157l-3.1 2.36v-1.75a.767.767 0 0 0-.766-.767H1.535V1.97H20.26v12.126zM21.028.435H.768A.767.767 0 0 0 0 1.202v13.66c0 .425.344.768.767.768H3.24v2.533a.767.767 0 0 0 1.233.61l4.125-3.143h12.43a.767.767 0 0 0 .767-.767V1.203a.767.767 0 0 0-.767-.768z" mask="url(#b)"/>
        </g>
    </g>
</svg>
