<svg xmlns="http://www.w3.org/2000/svg" width="28" height="25" viewBox="0 0 28 25">
    <g fill="#FFF" fill-rule="evenodd">
        <path d="M25.607 20.376H3.855V20.1A1.927 1.927 0 0 0 0 20.1v1.928c0 1.217.986 2.203 2.203 2.203h23.404a1.927 1.927 0 1 0 0-3.855M11.973 14.532a1.927 1.927 0 1 0-3.855 0 1.927 1.927 0 0 0 3.855 0M19.417 14.532a1.927 1.927 0 1 0-3.855 0 1.927 1.927 0 0 0 3.855 0"/>
        <path d="M13.767 0C6.164 0 0 6.164 0 13.768v.275a1.927 1.927 0 1 0 3.855 0v-.275c0-5.475 4.438-9.913 9.912-9.913 5.475 0 9.913 4.438 9.913 9.913v2.478a1.927 1.927 0 0 0 3.855 0v-2.478C27.535 6.164 21.371 0 13.767 0"/>
    </g>
</svg>
