<svg xmlns="http://www.w3.org/2000/svg" xmlns:xlink="http://www.w3.org/1999/xlink" width="20" height="20" viewBox="0 0 20 20">
    <defs>
        <path id="a" d="M0 0h19.831v19.814H.001z"/>
    </defs>
    <g fill="none" fill-rule="evenodd">
        <mask id="b" fill="#fff">
            <use xlink:href="#a"/>
        </mask>
        <path fill="#FFF" stroke="#FFF" d="M17.269 9.12c-.006.001-.012 0-.017.002-.071.02-.135.033-.196.044-.075.01-.15.022-.227.022a1.522 1.522 0 0 1-.555-.105l-.036-.01a1.615 1.615 0 0 1-1-1.368c-.001-.014-.005-.027-.007-.04-.002-.028-.008-.055-.008-.084a.698.698 0 0 0-1.396 0c0 .036-.008.068-.01.103-.001.007-.005.013-.006.02a1.615 1.615 0 0 1-1 1.368l-.034.011c-.08.03-.162.057-.248.074a1.61 1.61 0 0 1-.618 0 1.572 1.572 0 0 1-.245-.073c-.012-.005-.025-.007-.037-.012a1.617 1.617 0 0 1-1-1.367c0-.013-.005-.025-.007-.037-.001-.03-.009-.057-.009-.087a.698.698 0 1 0-1.395 0c0 .036-.008.068-.01.103-.001.007-.005.013-.006.02a1.615 1.615 0 0 1-1 1.368l-.033.011a1.601 1.601 0 0 1-.866.074 1.588 1.588 0 0 1-.248-.074c-.012-.004-.024-.006-.034-.01a1.614 1.614 0 0 1-1-1.368l-.008-.04c-.002-.028-.009-.055-.009-.084a.698.698 0 0 0-1.395 0c0 .036-.008.07-.01.105-.002.007-.005.012-.006.019a1.616 1.616 0 0 1-1 1.367c-.012.005-.025.007-.037.012a1.572 1.572 0 0 1-.554.104c-.059 0-.114-.011-.171-.017l-.062-.009c-.015-.002-.03 0-.044-.002a1.606 1.606 0 0 1-1.33-1.579c0-.13.024-.272.074-.444a.713.713 0 0 0 .016-.07L3.53 1.397h12.787l1.977 5.522.015.045.037.104c.004.023.01.047.017.07.05.172.073.313.073.444 0 .733-.496 1.346-1.167 1.539zm-.53 9.299H3.365V10.56c.042-.005.082-.015.123-.021a3.001 3.001 0 0 0 1.818-1.037 2.996 2.996 0 0 0 4.609 0 2.998 2.998 0 0 0 4.609 0c.392.47.928.816 1.537.978l.043.012c.07.017.142.03.214.043.041.007.082.015.124.02.056.007.113.011.17.015.042.004.083.01.125.012v7.836zm2.924-11.813l-.042-.119-.018-.05L17.465.464A.698.698 0 0 0 16.808 0H3.041a.697.697 0 0 0-.657.461L.247 6.393c-.014.03-.025.062-.04.105l-.075.208a.665.665 0 0 0-.037.166 2.81 2.81 0 0 0-.095.71c0 1.292.823 2.394 1.97 2.815v8.72c0 .385.313.697.699.697h14.767a.698.698 0 0 0 .698-.698v-8.835a3.003 3.003 0 0 0 1.697-2.7c0-.21-.027-.425-.081-.654a.693.693 0 0 0-.087-.321z" mask="url(#b)"/>
    </g>
</svg>
