<svg xmlns="http://www.w3.org/2000/svg" xmlns:xlink="http://www.w3.org/1999/xlink" width="74" height="21" viewBox="0 0 74 21">
    <defs>
        <path id="a" d="M0 .05h23.823V5H0z"/>
    </defs>
    <g fill="none" fill-rule="evenodd">
        <path fill="#468EF7" d="M38.824 7c-1.148 0-2.107.455-2.926 1.39C35.376 7.492 34.475 7 33.339 7c-1.23 0-1.999.634-2.534 1.28-.123-.688-.7-1.21-1.39-1.21-.78 0-1.415.665-1.415 1.483v6.964c0 .818.634 1.483 1.414 1.483.78 0 1.415-.665 1.415-1.483V11.49c0-1.142.498-1.77 1.403-1.77 1.118 0 1.353.962 1.353 1.77v4.027c0 .818.635 1.483 1.415 1.483s1.415-.665 1.415-1.483V11.49c0-1.142.498-1.77 1.403-1.77 1.118 0 1.353.962 1.353 1.77v4.027c0 .818.634 1.483 1.414 1.483.78 0 1.415-.665 1.415-1.483v-4.906C42 8.316 40.842 7 38.824 7M51.505 7a1.49 1.49 0 0 0-1.495 1.483v4.027c0 1.142-.546 1.77-1.537 1.77-1.226 0-1.483-.962-1.483-1.77V8.483A1.49 1.49 0 0 0 45.495 7 1.49 1.49 0 0 0 44 8.483v4.871C44 15.637 45.262 17 47.374 17c1.288 0 2.096-.634 2.661-1.28.13.688.74 1.21 1.47 1.21A1.49 1.49 0 0 0 53 15.446V8.483A1.49 1.49 0 0 0 51.505 7M61.09 12.103v.033c0 1.38-.89 2.38-2.116 2.38-1.216 0-2.099-1-2.099-2.413 0-1.38.883-2.382 2.099-2.382 1.206 0 2.116 1.024 2.116 2.382m-1.443-4.864c-1.106 0-2.005.4-2.737 1.222V5.438c0-.793-.653-1.438-1.455-1.438S54 4.645 54 5.438v10.057c0 .792.653 1.437 1.455 1.437.688 0 1.266-.469 1.416-1.107.769.8 1.658 1.175 2.776 1.175C62.504 17 64 14.554 64 12.103c0-3.193-2.19-4.864-4.353-4.864M71.163 12.975v.38c0 .886-.804 1.506-1.954 1.506-.814 0-1.319-.382-1.319-1.032 0-.734.622-1.155 1.707-1.155.556 0 1.107.107 1.566.3m1.77-4.875C72.201 7.369 71.09 7 69.633 7c-1.195 0-2.142.155-3.072.502a1.26 1.26 0 0 0-.82 1.175c0 .694.554 1.237 1.26 1.237.144 0 .266-.022.433-.077a6.045 6.045 0 0 1 1.81-.257c1.232 0 1.865.515 1.883 1.532a6.859 6.859 0 0 0-2.166-.33c-2.517 0-3.961 1.149-3.961 3.153v.035c0 1.812 1.364 3.03 3.396 3.03 1.127 0 2.031-.335 2.756-1.025.143.508.642.954 1.394.954.815 0 1.454-.627 1.454-1.43v-4.29c0-1.36-.359-2.405-1.067-3.11"/>
        <g transform="translate(0 16)">
            <mask id="b" fill="#fff">
                <use xlink:href="#a"/>
            </mask>
            <path fill="#468EF7" d="M22.156 1.85H3.336v-.225C3.335.755 2.588.05 1.667.05.746.05 0 .755 0 1.625V3.2C0 4.194.853 5 1.906 5h20.25c.921 0 1.667-.705 1.667-1.575s-.746-1.575-1.667-1.575" mask="url(#b)"/>
        </g>
        <path fill="#468EF7" d="M10 12.5a1.5 1.5 0 1 0-3 0 1.5 1.5 0 0 0 3 0M17 12.5a1.5 1.5 0 1 0-3 0 1.5 1.5 0 0 0 3 0"/>
        <path fill="#468EF7" d="M12 0C5.372 0 0 5.427 0 12.121v.243c0 .937.752 1.697 1.68 1.697.928 0 1.68-.76 1.68-1.697v-.243c0-4.82 3.868-8.727 8.64-8.727s8.64 3.907 8.64 8.727v2.182c0 .937.752 1.697 1.68 1.697.928 0 1.68-.76 1.68-1.697v-2.182C24 5.427 18.628 0 12 0"/>
    </g>
</svg>
